<svg width="25" height="31" viewBox="0 0 25 31" fill="none" xmlns="http://www.w3.org/2000/svg">
<path d="M17.75 10.277H20.375C21.0712 10.277 21.7389 10.5535 22.2312 11.0458C22.7234 11.5381 23 12.2058 23 12.902V26.552C23 27.2482 22.7234 27.9158 22.2312 28.4081C21.7389 28.9004 21.0712 29.177 20.375 29.177H4.625C3.92881 29.177 3.26113 28.9004 2.76884 28.4081C2.27656 27.9158 2 27.2482 2 26.552V12.902C2 12.2058 2.27656 11.5381 2.76884 11.0458C3.26113 10.5535 3.92881 10.277 4.625 10.277H7.25" stroke="white" stroke-width="2.1" stroke-linecap="round" stroke-linejoin="round"/>
<path d="M7.25 16.577L12.5 21.827L17.75 16.577M12.5 1.87697V20.777" stroke="white" stroke-width="2.1" stroke-linecap="round" stroke-linejoin="round"/>
</svg>
